<?xml version="1.0" encoding="UTF-8" standalone="no"?>
<!-- Created with Inkscape (http://www.inkscape.org/) -->

<svg
   xmlns:dc="http://purl.org/dc/elements/1.1/"
   xmlns:cc="http://creativecommons.org/ns#"
   xmlns:rdf="http://www.w3.org/1999/02/22-rdf-syntax-ns#"
   xmlns:svg="http://www.w3.org/2000/svg"
   xmlns="http://www.w3.org/2000/svg"
   version="1.1"
   width="500"
   height="500"
   id="svg3623"
   xml:space="preserve"><metadata
     id="metadata3629"><rdf:RDF><cc:Work
         rdf:about=""><dc:format>image/svg+xml</dc:format><dc:type
           rdf:resource="http://purl.org/dc/dcmitype/StillImage" /><dc:title></dc:title></cc:Work></rdf:RDF></metadata><defs
     id="defs3627"><clipPath
       id="clipPath3637"><path
         d="M 0,400 400,400 400,0 0,0 0,400 z"
         id="path3639" /></clipPath><clipPath
       id="clipPath3689"><path
         d="m 229.282,290.477 -1.606,0 -57.595,0 c -6.551,0 -12.111,-1.468 -16.682,-4.398 l 0,0 c -4.567,-2.934 -6.855,-7.848 -6.855,-14.743 l 0,0 c 0,-6.897 2.288,-11.811 6.855,-14.742 l 0,0 c 4.571,-2.933 10.131,-4.396 16.682,-4.396 l 0,0 57.595,0 1.606,0 1.239,0 c 6.551,0 12.111,1.463 16.682,4.396 l 0,0 c 4.567,2.931 6.854,7.845 6.854,14.742 l 0,0 c 0,6.895 -2.287,11.809 -6.854,14.743 l 0,0 c -4.571,2.93 -10.131,4.398 -16.682,4.398 l 0,0 -1.239,0 z"
         id="path3691" /></clipPath><clipPath
       id="clipPath3713"><path
         d="M 0,400 400,400 400,0 0,0 0,400 z"
         id="path3715" /></clipPath><clipPath
       id="clipPath3741"><path
         d="m 285.253,184.445 -6.348,-12.046 c -1.385,-2.627 -4.11,-4.27 -7.078,-4.27 l 0,0 -0.018,0 c -2.976,0.006 -5.702,1.665 -7.077,4.304 l 0,0 -6.259,12.012 -40.285,0 c -0.068,-0.119 -0.122,-0.244 -0.195,-0.36 l 0,0 -10.925,-17.239 c -1.468,-2.315 -4.017,-3.717 -6.758,-3.717 l 0,0 -0.02,0 c -2.748,0.007 -5.3,1.423 -6.759,3.752 l 0,0 -10.65,16.998 c -0.115,0.184 -0.205,0.377 -0.304,0.566 l 0,0 -40.116,0 -6.338,-12.042 c -1.383,-2.629 -4.109,-4.274 -7.079,-4.274 l 0,0 -0.018,0 c -2.977,0.006 -5.704,1.666 -7.079,4.307 l 0,0 -6.248,12.009 -34.34,0 0,-108.499 237.5,0 0,108.499 -33.606,0 z"
         id="path3743" /></clipPath></defs><g
     transform="matrix(1.25,0,0,-1.25,0,500)"
     id="g3631"><g
       id="g3633"><g
         clip-path="url(#clipPath3637)"
         id="g3635"><g
           transform="translate(179.1377,319.8633)"
           id="g3641"><path
             d="m 0,0 45.425,0 c 8.425,0 16.226,-1.12 23.405,-3.357 7.174,-2.241 13.396,-5.53 18.663,-9.876 5.266,-4.345 9.382,-9.711 12.344,-16.096 2.963,-6.388 4.443,-13.727 4.443,-22.022 0,-6.585 -0.921,-12.18 -2.763,-16.788 -1.846,-4.61 -3.886,-8.427 -6.123,-11.455 -2.635,-3.426 -5.599,-6.32 -8.888,-8.69 l 24.688,-43.45 -49.376,0 -19.751,33.378 0,-33.378 -42.067,0 L 0,0 z"
             id="path3643"
             style="fill:#000000;fill-opacity:1;fill-rule:nonzero;stroke:none" /></g><g
           transform="translate(179.1377,319.8633)"
           id="g3645"><path
             d="m 0,0 45.425,0 c 8.425,0 16.226,-1.12 23.405,-3.357 7.174,-2.241 13.396,-5.53 18.663,-9.876 5.266,-4.345 9.382,-9.711 12.344,-16.096 2.963,-6.388 4.443,-13.727 4.443,-22.022 0,-6.585 -0.921,-12.18 -2.763,-16.788 -1.846,-4.61 -3.886,-8.427 -6.123,-11.455 -2.635,-3.426 -5.599,-6.32 -8.888,-8.69 l 24.688,-43.45 -49.376,0 -19.751,33.378 0,-33.378 -42.067,0 L 0,0 z"
             id="path3647"
             style="fill:none;stroke:#000000;stroke-width:4;stroke-linecap:round;stroke-linejoin:round;stroke-miterlimit:10;stroke-opacity:1;stroke-dasharray:none" /></g><g
           transform="translate(221.4639,188.1289)"
           id="g3649"><path
             d="m 0,0 -42.067,0 0,33.378 L -61.818,0 l -49.376,0 24.688,43.45 c -3.289,2.37 -6.253,5.265 -8.888,8.691 -2.237,3.027 -4.277,6.844 -6.123,11.455 -1.842,4.607 -2.763,10.202 -2.763,16.787 0,8.296 1.48,15.634 4.443,22.022 2.962,6.386 7.078,11.752 12.344,16.096 5.267,4.346 11.489,7.635 18.663,9.876 7.179,2.237 14.98,3.357 23.405,3.357 L 0,131.734 0,0 z"
             id="path3651"
             style="fill:#000000;fill-opacity:1;fill-rule:nonzero;stroke:none" /></g><g
           transform="translate(221.4639,188.1289)"
           id="g3653"><path
             d="m 0,0 -42.067,0 0,33.378 L -61.818,0 l -49.376,0 24.688,43.45 c -3.289,2.37 -6.253,5.265 -8.888,8.691 -2.237,3.027 -4.277,6.844 -6.123,11.455 -1.842,4.607 -2.763,10.202 -2.763,16.787 0,8.296 1.48,15.634 4.443,22.022 2.962,6.386 7.078,11.752 12.344,16.096 5.267,4.346 11.489,7.635 18.663,9.876 7.179,2.237 14.98,3.357 23.405,3.357 L 0,131.734 0,0 z"
             id="path3655"
             style="fill:none;stroke:#000000;stroke-width:4;stroke-linecap:round;stroke-linejoin:round;stroke-miterlimit:10;stroke-opacity:1;stroke-dasharray:none" /></g><g
           transform="translate(189.6602,188.127)"
           id="g3657"><path
             d="M 0,0 10.65,-16.998 21.575,0.24 0,0 z"
             id="path3659"
             style="fill:#000000;fill-opacity:1;fill-rule:nonzero;stroke:none" /></g><g
           transform="translate(189.6602,188.127)"
           id="g3661"><path
             d="M 0,0 10.65,-16.998 21.575,0.24 0,0 z"
             id="path3663"
             style="fill:none;stroke:#000000;stroke-width:4;stroke-linecap:round;stroke-linejoin:round;stroke-miterlimit:10;stroke-opacity:1;stroke-dasharray:none" /></g><g
           transform="translate(253.8633,210.6045)"
           id="g3665"><path
             d="M 0,0 17.964,-34.476 27.049,-17.237 0,0 z"
             id="path3667"
             style="fill:#000000;fill-opacity:1;fill-rule:nonzero;stroke:none" /></g><g
           transform="translate(253.8633,210.6045)"
           id="g3669"><path
             d="M 0,0 17.964,-34.476 27.049,-17.237 0,0 z"
             id="path3671"
             style="fill:none;stroke:#000000;stroke-width:4;stroke-linecap:round;stroke-linejoin:round;stroke-miterlimit:10;stroke-opacity:1;stroke-dasharray:none" /></g><g
           transform="translate(120.0762,193.3633)"
           id="g3673"><path
             d="M 0,0 8.968,-17.234 27.112,17.241 0,0 z"
             id="path3675"
             style="fill:#000000;fill-opacity:1;fill-rule:nonzero;stroke:none" /></g><g
           transform="translate(120.0762,193.3633)"
           id="g3677"><path
             d="M 0,0 8.968,-17.234 27.112,17.241 0,0 z"
             id="path3679"
             style="fill:none;stroke:#000000;stroke-width:4;stroke-linecap:round;stroke-linejoin:round;stroke-miterlimit:10;stroke-opacity:1;stroke-dasharray:none" /></g><g
           transform="translate(247.2031,286.0796)"
           id="g3681"><path
             d="m 0,0 c -4.571,2.93 -10.132,4.397 -16.683,4.397 l -1.238,0 -1.606,0 -57.595,0 c -6.551,0 -12.111,-1.467 -16.683,-4.397 -4.566,-2.934 -6.854,-7.848 -6.854,-14.743 0,-6.898 2.288,-11.812 6.854,-14.742 4.572,-2.933 10.132,-4.397 16.683,-4.397 l 57.595,0 1.606,0 1.238,0 c 6.551,0 12.112,1.464 16.683,4.397 4.566,2.93 6.854,7.844 6.854,14.742 C 6.854,-7.848 4.566,-2.934 0,0"
             id="path3683"
             style="fill:#aa0600;fill-opacity:1;fill-rule:nonzero;stroke:none" /></g></g></g><g
       id="g3685"><g
         clip-path="url(#clipPath3689)"
         id="g3687"><path
           d="m 300.026,250.198 -200.667,0 0,2 200.667,0 0,-2 z"
           id="path3693"
           style="fill:#640600;fill-opacity:1;fill-rule:nonzero;stroke:none" /><path
           d="m 300.026,255.385 -200.667,0 0,2 200.667,0 0,-2 z"
           id="path3695"
           style="fill:#640600;fill-opacity:1;fill-rule:nonzero;stroke:none" /><path
           d="m 300.026,260.572 -200.667,0 0,2 200.667,0 0,-2 z"
           id="path3697"
           style="fill:#640600;fill-opacity:1;fill-rule:nonzero;stroke:none" /><path
           d="m 300.026,265.759 -200.667,0 0,2 200.667,0 0,-2 z"
           id="path3699"
           style="fill:#640600;fill-opacity:1;fill-rule:nonzero;stroke:none" /><path
           d="m 300.026,270.946 -200.667,0 0,2 200.667,0 0,-2 z"
           id="path3701"
           style="fill:#640600;fill-opacity:1;fill-rule:nonzero;stroke:none" /><path
           d="m 300.026,276.133 -200.667,0 0,2 200.667,0 0,-2 z"
           id="path3703"
           style="fill:#640600;fill-opacity:1;fill-rule:nonzero;stroke:none" /><path
           d="m 300.026,281.321 -200.667,0 0,2 200.667,0 0,-2 z"
           id="path3705"
           style="fill:#640600;fill-opacity:1;fill-rule:nonzero;stroke:none" /><path
           d="m 300.026,286.508 -200.667,0 0,2 200.667,0 0,-2 z"
           id="path3707"
           style="fill:#640600;fill-opacity:1;fill-rule:nonzero;stroke:none" /></g></g><g
       id="g3709"><g
         clip-path="url(#clipPath3713)"
         id="g3711"><g
           transform="translate(224.9883,261.8486)"
           id="g3717"><path
             d="m 0,0 c -5.553,0 -10.069,4.517 -10.069,10.069 0,5.552 4.516,10.069 10.069,10.069 5.553,0 10.069,-4.517 10.069,-10.069 C 10.069,4.517 5.553,0 0,0"
             id="path3719"
             style="fill:#ffffff;fill-opacity:1;fill-rule:nonzero;stroke:none" /></g><g
           transform="translate(224.9883,282.9868)"
           id="g3721"><path
             d="m 0,0 c -6.104,0 -11.069,-4.966 -11.069,-11.069 0,-6.104 4.965,-11.069 11.069,-11.069 6.104,0 11.069,4.965 11.069,11.069 C 11.069,-4.966 6.104,0 0,0 m 0,-2 c 5.008,0 9.069,-4.06 9.069,-9.069 0,-5.009 -4.061,-9.069 -9.069,-9.069 -5.009,0 -9.069,4.06 -9.069,9.069 C -9.069,-6.06 -5.009,-2 0,-2"
             id="path3723"
             style="fill:#640600;fill-opacity:1;fill-rule:nonzero;stroke:none" /></g><g
           transform="translate(153.3984,282.0796)"
           id="g3725"><path
             d="m 0,0 c 4.571,2.93 10.132,4.397 16.683,4.397 l 57.594,0 1.607,0 1.238,0 c 6.551,0 12.111,-1.467 16.683,-4.397 4.108,-2.64 6.355,-6.897 6.768,-12.743 0.046,0.652 0.086,1.308 0.086,2 0,6.895 -2.288,11.809 -6.854,14.743 -4.572,2.93 -10.132,4.397 -16.683,4.397 l -1.238,0 -1.607,0 -57.594,0 C 10.132,8.397 4.571,6.93 0,4 -4.566,1.066 -6.854,-3.848 -6.854,-10.743 c 0,-0.692 0.04,-1.348 0.085,-2 C -6.355,-6.897 -4.108,-2.64 0,0"
             id="path3727"
             style="fill:#640600;fill-opacity:1;fill-rule:nonzero;stroke:none" /></g><g
           transform="translate(175.6133,261.8486)"
           id="g3729"><path
             d="m 0,0 c -5.552,0 -10.069,4.517 -10.069,10.069 0,5.552 4.517,10.069 10.069,10.069 5.552,0 10.068,-4.517 10.068,-10.069 C 10.068,4.517 5.552,0 0,0"
             id="path3731"
             style="fill:#ffffff;fill-opacity:1;fill-rule:nonzero;stroke:none" /></g><g
           transform="translate(175.6133,282.9868)"
           id="g3733"><path
             d="m 0,0 c -6.104,0 -11.069,-4.966 -11.069,-11.069 0,-6.104 4.965,-11.069 11.069,-11.069 6.103,0 11.068,4.965 11.068,11.069 C 11.068,-4.966 6.103,0 0,0 m 0,-2 c 5.008,0 9.068,-4.06 9.068,-9.069 0,-5.009 -4.06,-9.069 -9.068,-9.069 -5.009,0 -9.069,4.06 -9.069,9.069 C -9.069,-6.06 -5.009,-2 0,-2"
             id="path3735"
             style="fill:#640600;fill-opacity:1;fill-rule:nonzero;stroke:none" /></g></g></g><g
       id="g3737"><g
         clip-path="url(#clipPath3741)"
         id="g3739"><g
           transform="translate(295.0605,179.6035)"
           id="g3745"><path
             d="m 0,0 -189.252,0 -21.5,-34.475 116.126,-66.234 L 21.5,-34.475 0,0 z"
             id="path3747"
             style="fill:#aa0600;fill-opacity:1;fill-rule:nonzero;stroke:none" /></g><g
           transform="translate(247.627,179.6035)"
           id="g3749"><path
             d="M 0,0 -23.852,-34.475 -47.433,0 0,0 z"
             id="path3751"
             style="fill:#640600;fill-opacity:1;fill-rule:nonzero;stroke:none" /></g><g
           transform="translate(295.0605,179.6035)"
           id="g3753"><path
             d="M 0,0 -23.853,-34.475 -47.434,0 0,0 z"
             id="path3755"
             style="fill:#640600;fill-opacity:1;fill-rule:nonzero;stroke:none" /></g><g
           transform="translate(200.6611,179.6035)"
           id="g3757"><path
             d="M 0,0 -23.851,-34.475 -47.433,0 0,0 z"
             id="path3759"
             style="fill:#640600;fill-opacity:1;fill-rule:nonzero;stroke:none" /></g><g
           transform="translate(153.2285,179.6035)"
           id="g3761"><path
             d="M 0,0 -23.852,-34.475 -47.42,0 0,0 z"
             id="path3763"
             style="fill:#640600;fill-opacity:1;fill-rule:nonzero;stroke:none" /></g><g
           transform="translate(129.3765,145.1289)"
           id="g3765"><path
             d="M 0,0 71.058,-66.234 -45.068,0 0,0 z"
             id="path3767"
             style="fill:#640600;fill-opacity:1;fill-rule:nonzero;stroke:none" /></g><g
           transform="translate(223.7754,145.1289)"
           id="g3769"><path
             d="M 0,0 -23.341,-66.234 -46.965,0 0,0 z"
             id="path3771"
             style="fill:#640600;fill-opacity:1;fill-rule:nonzero;stroke:none" /></g><g
           transform="translate(316.5605,145.1289)"
           id="g3773"><path
             d="M 0,0 -116.126,-66.234 -45.353,0 0,0 z"
             id="path3775"
             style="fill:#640600;fill-opacity:1;fill-rule:nonzero;stroke:none" /></g></g></g></g></svg>